<svg xmlns="http://www.w3.org/2000/svg" xmlns:xlink="http://www.w3.org/1999/xlink" width="120" height="135" viewBox="0 0 120 135">
    <defs>
        <path id="a" d="M0 .524h120v120H0z"/>
        <path id="d" d="M120 60.524c0 33.136-26.863 60-60 60s-60-26.864-60-60c0-33.138 26.863-60 60-60s60 26.862 60 60"/>
        <filter id="c" width="131.7%" height="131.7%" x="-15.8%" y="-14.2%" filterUnits="objectBoundingBox">
            <feOffset dy="2" in="SourceAlpha" result="shadowOffsetOuter1"/>
            <feGaussianBlur in="shadowOffsetOuter1" result="shadowBlurOuter1" stdDeviation="6"/>
            <feColorMatrix in="shadowBlurOuter1" values="0 0 0 0 0 0 0 0 0 0 0 0 0 0 0 0 0 0 0.2 0"/>
        </filter>
        <path id="e" d="M.082.41h26.329V29.87H.082z"/>
        <path id="g" d="M.326.336h17.69V48.2H.326z"/>
    </defs>
    <g fill="none" fill-rule="evenodd">
        <g transform="translate(0 13.717)">
            <mask id="b" fill="#fff">
                <use xlink:href="#a"/>
            </mask>
            <g fill-rule="nonzero" mask="url(#b)">
                <use fill="#000" filter="url(#c)" xlink:href="#d"/>
                <use fill="#FECB2F" xlink:href="#d"/>
            </g>
        </g>
        <path fill="#000" d="M77.926 104.699c-3.005-4.16-7.574-7.032-8.144-7.409l-28.45 10.415s1.523 9.052 1.141 13.533c1.255.204 6.235 8.023 9.631 12.485 2.584.339 5.22.517 7.896.517.756 0 1.509-.019 2.26-.046 7.37-6.192 11.117-21.918 15.666-29.495"/>
        <path fill="#13171B" d="M31.382 113.773l.443 13.45a59.6 59.6 0 0 0 21.232 6.615l-5.891-28.261-15.784 8.196z"/>
        <path fill="#000" d="M47.166 105.577l-3.326 1.727c.233.901.48 1.798.73 2.694l-13.188 3.776.443 13.449c1.35.72 2.732 1.388 4.142 2.005-.033-.304-.062-.61-.1-.912a72.359 72.359 0 0 0-.478-3.24c-.315-1.863 8.964-2.663 9.534-4.466.393-1.238.797-3.205 1.082-5.185.076.318.485 1.058.605 1.363.606 1.55 1.73 3.936 1.522 5.659-.128 1.055-.922 4.955-2.04 10.17a61.29 61.29 0 0 0 2.096.458c1.395-5.68 3.093-15.048 3.363-16.023l-4.385-11.475z"/>
        <path fill="#13171B" d="M98.848 92.253L62.66 105.501c3.356 6.191 5.74 12.853 7.652 19.642.73 2.595 1.387 5.207 2.021 7.825 17.073-3.567 31.48-14.39 39.849-29.097-5.332-6.552-12.389-10.993-13.334-11.618"/>
        <path fill="#000" d="M9.814 89.286s26.407-8.748 32.303-10.661c7.942-2.579 34.152-11.96 56.9-10.976 0 0 .772.542.28 2.705-1.294 5.7-4.954 17.702-6.605 23.565-.46 1.631-45.007 17.065-45.007 17.065s-10.126-8.03-13.876-11.704c-2.518-2.466-23.74-9.196-23.995-9.994"/>
        <g transform="translate(53.974 104.372)">
            <mask id="f" fill="#fff">
                <use xlink:href="#e"/>
            </mask>
            <path fill="#E8EAE9" d="M10.03.41L.083 20.327 1.94 29.73c1.746.153 1.776.139 3.562.139a59.857 59.857 0 0 0 20.909-3.747l-.755-8.728S15.32.73 10.03.411" mask="url(#f)"/>
        </g>
        <path fill="#CBD3D3" d="M52.605 116.59c.676 3.732 1.664 14.161 4.694 16.94 0 0 1.482-6.486 4.883-11.736 3.401-5.25-7.4-13.479-7.4-13.479l-2.177 8.274z"/>
        <path fill="#FFF" d="M64.58 101.08c-2.042-1.11-4.4-4.235-4.4-4.235l-5.712.602s8.302 4.212 5.153 5.65c-3.149 1.438-7.83 1.584-8.037 5.516-.32 6.103 1.777 17.626 3.487 21.22.379-2.915 5.708-13.36 5.708-13.36l3.735-3.005.344 2.443c.538.282 7.087-3.92 6.114-7.408-.812-2.91-4.35-6.31-6.392-7.422"/>
        <path fill="#CBD3D3" d="M70.563 123.014l-2.33-7.103-8.413.823 1.482 4.334-3.485 1.608 1.997 5.61-.378 5.954h.04a60.4 60.4 0 0 0 10.146-.859l-1.359-7.111 2.3-3.256z"/>
        <path fill="#13171B" d="M67.613 123.165l2.55-4.137-2.241-4.534-2.593 2.401-4.088.592-1.063-.648-2.453 4.374 1.619 2.075 1.537 4.39v6.554c2.929-.067 5.833-.277 8.643-.75l-1.936-6.176.025-4.14z"/>
        <path fill="#9CA9B5" d="M91.44 81.61l-36.477 6.252-14.744-13.224 5.41-6.038-2.258-5.268 1.135-10.42 42.003-4.798z"/>
        <path fill="#AEB7C2" d="M84.197 90.027c-.02.042.753.233.753.292.263-.145.239-.01.515-.125.005-.061 1.047-.566 1.044-.607-.2-2.979-4.526-2-4.526-2s3.122.437 2.214 2.44"/>
        <path fill="#4B575B" d="M90.66 96.963L66.48 107.32l-3.437-7.193-9.37-1.443v-9.808l32.836.71z"/>
        <path fill="#BFC2CC" d="M44.695 78.148c.255-.784.673-.589 1.177-.156 4.59-3.434 8.261-7.802 10.534-13.006l-21.204 1.077c0 2.184 7.398 5.361 8.045 7.005.575 1.461-10.345 5.871-8.886 6.255.4.105 5.553-1.624 6.07-1.677l.127-.015c.3.041.625.051.982.015 1.668-.168 2.754 1.734 3.155.502"/>
        <path fill="#627479" d="M89.14 61.363l-22.688 2.534.123.572-31.374 1.593c0 2.185 7.399 5.362 8.046 7.006.576 1.462-10.344 5.871-8.886 6.255.4.106 5.552-1.625 6.07-1.677l.127-.016c.3.043.624.053.982.016 1.668-.168 2.755 1.734 3.155.502.57-1.75 1.946 1.37 3.3 1.157l.865-.077c.9.13 1.176-2.045 1.787-.701.82 1.803.971-2.256 4.242-2.332 6.775 2.864 13.613-.012 13.767-3.094 4.275.129 4.77.281 7.884-.073 1.021 1.602 1.755 4.326 2.1 8.25l9.703-4.437.798-15.478z"/>
        <path fill="#000" d="M70.635 58.17l.579 4.673 2.666 5.968c3.587-7.378 6.715-2.693 8.103 12.25l10.663-3.376-3.396-11.204c1.262.493 3.619.133 4.851-.86-2.523-1.191-2.66-2.846-4.508-4.095 1.946.283 3.864-.707 4.36-2.842-3.203-.546-5.877-1.695-6.888-3.237l-.728-1.33c-5.678 1.034-10.838 4.008-15.702 4.054"/>
        <path fill="#13171B" d="M35.809 64.132c0 2.184.42 6.687 1.066 8.33.734 1.863.812 3.278 2.442 3.278 2.606 0 6.278-1.242 6.678-2.473.57-1.75.793-2.311 2.148-2.523l2.112-.108c1.464-.05 1.935.352 2.697 2.027.96 2.11 6.378 2.579 9.744 2.24 3.367-.34 5.15-1.47 5.304-4.553.087-1.743.208-4.674-.287-7.838l-31.904 1.62z"/>
        <path fill="#000" d="M34.699 64.132c0 2.184.42 6.687 1.067 8.33.733 1.863 1.761 3.496 4.162 3.254 1.667-.169 4.41-1.218 4.81-2.45.569-1.75.793-2.31 2.148-2.522l1.21-.108c1.465-.05 1.936.352 2.698 2.027.96 2.11 7.426 2.579 10.792 2.24 3.367-.34 5.15-1.47 5.304-4.553.088-1.743.208-4.674-.287-7.838l-31.904 1.62z"/>
        <path fill="#000" d="M87.066 62.08l-21.793 4.038-.896-4.151 22.689-2.535z"/>
        <g transform="translate(43.493 2.188)">
            <mask id="h" fill="#fff">
                <use xlink:href="#g"/>
            </mask>
            <path fill="#D9E3E3" d="M17.729 42.418c.483-1.67.227-4.297.147-6.104-.092-2.06-1.91-10.218-2.632-12.107-.822-2.156-2.088-4.037-3.24-6.072-1.9-3.356-3.521-5.721-5.537-9.868-1.2-2.47-2.27-5.421-3.27-7.931C2.009 1.266.975 5.098.523 7.578c-.759 4.16.828 12.979 2.177 17.188 1.55 4.844 2.183 9.092 4.479 13.543 1.305 2.531 3.188 4.586 5.118 6.496 1.22 1.206 2.83 2.099 4.102 3.396" mask="url(#h)"/>
        </g>
        <path fill="#AEB7C2" d="M51.937 37.457c-.272-3.258-2.58-5.428-3.045-9.2-.466-3.798-1.613-17.416 1.181-17.416 1.312 3.48 3.746 6.518 5.425 9.482 1.151 2.035 2.417 3.916 3.24 6.072.722 1.889 2.54 10.047 2.631 12.107.08 1.808.337 4.433-.147 6.105l-1.329 5.783c-.39-.399-.814-.757-1.248-1.1.216-1.672-6.567-10.15-6.708-11.833"/>
        <path fill="#13171B" d="M98.866 50.075c.404 2.554-4.86 7.692-10.462 9.38-13.156 3.966-30.735 7.689-47.29 7.69-12.542 0-21.807-3.013-13.372-10.211 8.121-6.929 19.852-6.94 30.459-9.402 9.675-2.245 6.422 1.673 19.21 1.704 10.894.026 20.89-2.73 21.455.839"/>
        <path fill="#627479" d="M98.844 49.968c.404 2.554-4.838 7.056-10.44 8.745-13.156 3.966-30.63 7.179-47.186 7.179-12.54 0-21.986-1.911-13.55-9.11 8.12-6.928 19.926-7.53 30.533-9.992 9.675-2.246 6.422 1.673 19.21 1.704 10.894.026 20.868-2.095 21.433 1.474"/>
        <path fill="#13171B" d="M98.844 49.968c-.565-3.569-10.54-1.448-21.433-1.474-12.788-.03-9.535-3.95-19.21-1.704-10.607 2.462-22.412 3.064-30.533 9.993-2.536 2.164-3.447 3.847-3.153 5.147 6.195-2.62 12.47-4.45 19.045-6.237.047-.013.09-.008.134-.01a.429.429 0 0 1 .395-.215c6.88.016 13.605-1.564 20.452-1.986 3.139-.194 6.297-.063 9.427-.383 1.929-.197 3.95-.657 5.73.334.22.122.294.331.27.528 4.083 1.189 8.244 2.058 12.366 3.098 3.879-2.102 6.816-5.156 6.51-7.091"/>
        <path fill="#3C3F42" d="M88.619 51.308c-5.49 3.115-36.554 6.32-48.412 2.147l6.064-21.23c1.106-3.844 4.17-7.466 8.167-7.573 10.873-.29 24.081 2.987 31.012 7.19 1.928 1.17 1.872 2.232 2.05 4.48l1.119 14.986z"/>
        <path fill="#13171B" d="M87.5 36.322c-.178-2.248-.122-3.31-2.05-4.48-6.931-4.203-20.14-7.48-31.012-7.19-3.998.107-7.06 3.729-8.167 7.572l-6.064 21.231c.994.35 2.13.657 3.378.925.952-2.982 2.416-5.78 3.202-8.823.829-3.208 1.248-6.472 2.356-9.612 1.69-4.792 5.38-7.404 10.608-6.48 3.151.556 6.585 2.996 7.824 3.932 1.24.936 4.558 3.358 5.605 4.734 1.048 1.376 2.463 4.886 3.393 7.487 1.03 2.88 2.528 5.479 3.76 8.004 3.987-.75 7.166-1.14 8.356-2.317L87.5 36.322z"/>
        <path fill="#D9E3E3" d="M77.976 45.87c.016-1.739 1.015-4.18 1.61-5.89.68-1.947 4.761-9.24 5.996-10.843 1.405-1.829 3.158-3.267 4.845-4.886 2.784-2.67 5.678-3.964 8.136-7.865 1.523-2.416 3.73-4.541 5.408-6.659.871 1.232.762 5.2.484 7.705-.467 4.203-4.517 12.196-7.017 15.84-2.876 4.196-4.7 8.084-8.177 11.689-1.976 2.05-4.37 3.478-6.767 4.754-1.514.806-3.313 1.199-4.904 2.077"/>
        <path fill="#AEB7C2" d="M80.595 46.183c1.196-3.043 7.684-15.098 10.231-18.375 2.35-3.02 5.41-6.636 6.86-10.16-2.255 2.957-4.8 4.245-7.259 6.603-1.687 1.618-3.44 3.057-4.845 4.886-1.235 1.603-5.702 10.18-6.38 12.127-.597 1.709-1.595 4.15-1.612 5.89v4.638c.488-.27.997-.491 1.51-.695.274-1.664.877-3.343 1.495-4.914"/>
        <path fill="#FFD540" d="M42.571 44.926l-2.364 8.53c.75 1.586 3.443 3.18 7.02 3.25 19.218.384 37.928-3.09 41.536-5.245l-.504-5.569c-12.992.265-33.067-1.551-45.688-.966"/>
        <path fill="#DFA901" d="M80.197 53.957c4.26-.847 7.318-1.75 8.567-2.496l-.504-5.569c-3.316.068-7.095 0-11.09-.13 1.046 2.734 1.88 5.494 3.027 8.195M44.515 50.775c.827-2.032 1.916-3.945 2.764-5.962-1.654.01-3.233.045-4.708.113l-2.364 8.53c.353.747 1.142 1.494 2.247 2.085.776-1.548 1.416-3.176 2.061-4.766"/>
        <path fill="#E9EBEA" d="M95.36 122.182s.098-9.924 3.242-13.867c3.144-3.943 10.528-5.482 10.528-5.482-3.706 3.277-9.866 9.116-13.77 19.35" opacity=".2"/>
        <path fill="#AEB7C2" d="M31.02 92.253s6.255 3.382 6.892 4.063c.637.682.848 3.231.848 3.231l-1.182.785 3.804.723.992 4.82-1.838 2.611-.77.337.151 5.287-6.723 3.816-7.237-1.668-2.339-2.383.398-2.184-3.691-3.875.116-4.016-2.648-4.1 1.36-3.989 11.868-3.458z"/>
        <path fill="#627479" d="M38.15 99.952c-.478-.077-.955-.1-1.43-.199-.714-.147-1.279-.155-2.011-.333-1.234-.3-2.172-.418-3.37-.63-.496-.088-2.465-5.466-2.966-5.525-.678-.08-4.269 1.004-4.269 1.004s1.958.768 2.072 1.04c.648 1.535 1.444 5.347.636 5.772-.589.31-4.096 1.527-4.55 1.972.274.315.82.707 1.379.747.655.045 3.462-.512 4.214-.714 1.173-.316 8.448-2.336 8.968-2.542.27-.106.542-.156.815-.2l-.06-.012.572-.38z"/>
        <path fill="#627479" d="M29.096 102.652c1.066.58 2.73 6.73 2.73 6.73l-2.096.896c-.701.244-3.046.677-3.6 1.115.526.39 1.305.495 3.015.495 2.558 0 2.562 4.222 2.237 5.57l1.812.468 6.723-3.817-.151-5.286.77-.337 1.838-2.612-.992-4.819-7.14-.217c-2.67.295-5.576 1.581-5.146 1.814"/>
        <path fill="#A3AFB9" d="M26.95 88.805c.898 4.928.678 7.395 3.268 11.079 1.304 1.856 2.566 3.073 3.073 5.213.336 1.919.875 4.168 1.174 5.624 1.537-.947 1.52-2.004 1.988-3.026 0 0 .343 2.879 1.037 5.17 3.066-1.105 3.32-4.705 3.32-4.705s1.019 2.733 1.208 4.415c0 0 3.076-2.577 2.989-4.74 0 0 7.155-2.217 10.296-5.914 2.892-3.402 3.29-5.672 4.497-11.38.726-3.434-32.85-1.736-32.85-1.736"/>
        <path fill="#E9EBEA" d="M26.767 92.052c-.672-3.588.584-6.862 2.632-10.63.406-.748.405-.616-.063-1.327-.687-.96-1.08-2.929.797-3.936 1.96-1.053 4.188-.464 4.645-.003.374.348 1.964-.02 2.391-.166 2.408-.825 6.454-.745 7.803-.642 1.309.1 2.4.186 3.69.45 1.145.232.98.304 2.087.724 1.371.52 1.576.603 2.995-.014 1.43-.621 5.153-.466 5.881 1.647.41 1.191.078 3.135-.903 4.22a.782.782 0 0 0 .026 1.074c.707.743.985 1.825 1.157 2.829 1.578 9.201-6.007 9.915-8.265 11.639-2.065 1.893-7.495 3.787-15.643 2.976-6.359-.632-7.037-3.792-7.691-6.24-.238-.886-1.218-.734-1.539-2.601"/>
        <path fill="#FFF" d="M41.724 75.072c-2.611.205-4.593.823-6.013 1.13-1.42.308-3.839 7.078-.333 6.932 3.61-.15 6.38-4.162 13.499-7.177-1.763-1.012-4.252-1.112-7.153-.885"/>
        <path fill="#000" d="M42.058 93.716c-1.494-.72-4.421-.94-7.58-1.033-4.39-.13-1.84.794-5.203 1.087 0 0 .26 1.528 1.192 2.187 1.273.903 3.614.452 5.287.443 3.731-.018 5.187.609 9.308-.223 5.374-3.035-.707-1.352-3.004-2.46"/>
        <path fill="#FFF" d="M39.523 92.894l-4.474-.167-2.394.592-1.546.054-.517 1.2.158 2.447s3.312.539 5.02.268c.132-.197.028-.721.269-.77.2.078.195.534.27.773 1.62.327 4.707.441 4.707.441l.78-2.713 3.43.036-3.32-1.53-2.383-.631z"/>
        <path fill="#AEB7C2" d="M42.187 93.34c-1.622-.346-4.55-1.898-7.708-1.99-4.391-.13-2.411 1.886-5.774 2.178 0 0 .247.634.784.818 1.477.505 3.554.018 5.227.01 3.731-.02 5.572 1.166 10.837.769 4.624-1.05-1.497-1.384-3.366-1.784"/>
        <path fill="#627479" d="M57.243 80.258c-.128.878-.982 1.432-1.598 1.343-.616-.09-1.27-.903-1.142-1.781.128-.88 1.441-1.336 2.057-1.246.616.09.81.806.683 1.684"/>
        <path fill="#13171B" d="M63.784 129.336l1.998 4.626a59.635 59.635 0 0 0 25.766-8.68l-8.354-13.952-19.41 18.006z"/>
        <path fill="#000" d="M82.776 115.91c.28.352-12.443 6.98-14.014 12.97-.204.78.873 2.616 2.151 4.367a59.535 59.535 0 0 0 7.63-1.932c2.09-3.91 4.218-9.498 4.252-15.95 1.427 2.807 3.616 7.21 5.813 11.629a60.042 60.042 0 0 0 2.865-1.666l-9.152-15.088.455 5.67zM63.944 129.653l1.856 4.307a60.21 60.21 0 0 0 4.294-.57c-.851-1.756-1.562-3.317-2.014-4.51l-4.136.773z"/>
        <path fill="#272A2D" d="M98.848 92.253s2.951-16.41.797-23.868c-.056-.195-.264-.58-.63-.736 2.231 3.073-49.902 18.427-58.796 19.518l13.18 5.337 2.247 2.507 6.452 14.496c12.206 0 30.428-11.409 36.75-17.254"/>
        <path fill="#000" d="M55.66 96.971l10.674.15L80.2 95.68s-10.765-3.924-14.44-3.56c-3.192.315-4.35 1.314-4.718 2.223-.044.11-7.443-.855-7.466-.748-.164.744 2.085 3.375 2.085 3.375"/>
        <path fill="#627479" d="M81.45 123.655c-1.537 4.357-4.342 7.519-7.64 8.988a66.79 66.79 0 0 1-4.784.918 7.112 7.112 0 0 1-2.03-.457c-2.987-1.16-4.905-4.86-2.336-12.144 2.569-7.283 9.61-14.976 14.68-13.188 5.07 1.79 4.679 8.6 2.11 15.883"/>
        <path fill="#000" d="M80.2 123.307c-2.18 6.18-8.43 9.05-12.84 7.877-2.383-.633-3.39-4.071-1.21-10.251s8.153-12.708 12.456-11.19c4.303 1.517 3.773 7.384 1.594 13.564"/>
        <path fill="#7C8790" d="M74.826 100.33l.865 3.103 4.509 8.038s-2.045 6.299-3.83 8.97c-2.765 4.14-6.275 4.635-6.275 4.635l-10.632-3.965-5.402-3.652 2.516-15.297 7.35-6.104 1.429.156-2.547-1.839 2.309-1.233 6.162 1.686 3.546 5.502z"/>
        <path fill="#AEB7C2" d="M58.475 94.912s-1.138-.329-2.573-.622c-.06-.012-.704-.062-.765-.074-1.141-.13-2.536-.476-2.824-.121-.586.726-1.345 4.567-1.345 4.567l1.164 1.382-1.614 2.792-.388 3.874.925 2 .624 1.22-.003 5.075 2.385 2.453 3.58 1.545 2.493-3.24-.272-3.612 2.807-3.371.22-4.334 3.002-4.903-1.595-3.408-2.791-.587-3.03-.636z"/>
        <path fill="#FFF" d="M79.431 110.101l-.88-1.568 1.649.278 1.573 2.615c.373 1.838 1.135 5.31 1.003 6.818-.37 4.243-.412 5.685-1.416 8.274-.596 1.536-3.11 3.87-4.981 5.455-.796.236-1.662.46-2.569.67l-3.247-7.714 5.501-5.66s3.277-3.74 3.367-9.168"/>
        <path fill="#91A0AD" d="M75.204 126.927c-.641 1.226-.586 2.04.28 1.946.866-.095 1.155-.959.975-1.728-.182-.77-.792-1.105-1.255-.218"/>
        <path fill="#627479" d="M50.82 107.513c-.237-.508.42-4.803 1.577-5.177.465-.151 2.66 1.225 3.853 1.455.765.148 2.913.417 3.164.084-.485-.411-1.762-1.809-3.29-2.355-.474-.17-2.661-.931-3.287-1.81-.603-.844 1.538-5.207 3.065-5.42-.327-.13-1.467-.67-1.467-.67s-.866-.98-1.035-1.117c0 0-1.495.25-2.185.795-.547.565-1.086 4.466-1.086 4.466l1.058 2.382c-1.256 1.161-1.536 3.34-1.73 6.646l1.592 3.027.417 5.502 2.595 2.138c-1.353-1.435-2.753-6.934-.722-6.234 1.753.605 2.78.819 3.278.39-1.299-1.151-5.077-2.555-5.798-4.102M68.53 98.303l-4.524-2.05-2.201-.641 1.004-1.237 3.514 1.66z"/>
        <path fill="#CBD3D3" d="M73.015 130.753c-.264.137-1.57.577-2.402.609l-.754-3.326.704-3.107 2.452 5.824z"/>
        <path fill="#000" d="M98.837 92.239s2.951-16.41.797-23.868c-.056-.195-.264-.58-.629-.737.606.669-2.912 2.432-7.565 4.438 4.39 6.955.947 25.185.947 25.185s6.34 2.806 10.65 5.928c.97.703 4.514 3.04 6.745 4.558a60.001 60.001 0 0 0 2.4-3.873c-5.333-6.56-12.4-11.006-13.345-11.631"/>
    </g>
</svg>
