<svg xmlns="http://www.w3.org/2000/svg" xmlns:xlink="http://www.w3.org/1999/xlink" width="120" height="135" viewBox="0 0 120 135">
    <defs>
        <circle id="a" cx="60" cy="60" r="60"/>
        <filter id="b" width="131.7%" height="131.7%" x="-15.8%" y="-14.2%" filterUnits="objectBoundingBox">
            <feOffset dy="2" in="SourceAlpha" result="shadowOffsetOuter1"/>
            <feGaussianBlur in="shadowOffsetOuter1" result="shadowBlurOuter1" stdDeviation="6"/>
            <feColorMatrix in="shadowBlurOuter1" values="0 0 0 0 0 0 0 0 0 0 0 0 0 0 0 0 0 0 0.2 0"/>
        </filter>
        <circle id="c" cx="60" cy="60" r="60"/>
        <path id="e" d="M0 0h83.785v26.182H0z"/>
        <path id="g" d="M.144.247h19.602v20.48H.144z"/>
        <path id="i" d="M3.221.452L.5 12.306s14.824 1.703 13.917.592C13.51 11.787 11.693.155 11.693.155"/>
        <path id="k" d="M.102.5h21.123v19.682H.102z"/>
        <path id="m" d="M60 115c33.137 0 60-26.863 60-60V.54C95.125.18 75.125 0 60 0 52.192 0 32.192.18 0 .54V55c0 33.137 26.863 60 60 60z"/>
        <path id="o" d="M0 0h83.785v26.182H0z"/>
        <path id="q" d="M.144.247h19.602v20.48H.144z"/>
        <path id="s" d="M3.221.452L.5 12.306s14.824 1.703 13.917.592C13.51 11.787 11.693.155 11.693.155"/>
        <path id="u" d="M.102.5h21.123v19.682H.102z"/>
    </defs>
    <g fill="none" fill-rule="evenodd">
        <g transform="translate(0 15)">
            <g fill-rule="nonzero">
                <use fill="#000" filter="url(#b)" xlink:href="#a"/>
                <use fill="#E5F1FF" xlink:href="#a"/>
            </g>
            <mask id="d" fill="#fff">
                <use xlink:href="#c"/>
            </mask>
            <use fill="#E5F1FF" fill-rule="nonzero" xlink:href="#c"/>
            <g mask="url(#d)">
                <g transform="translate(17 95.16)">
                    <mask id="f" fill="#fff">
                        <use xlink:href="#e"/>
                    </mask>
                    <path fill="#13171B" d="M83.785 10.13C79.657 6.76 72.928 1.893 71.714 1.09L15.532.001S6.274 5.202 0 9.962C11.09 20.04 25.821 26.182 41.987 26.182c16.075 0 30.73-6.075 41.798-16.052" mask="url(#f)"/>
                </g>
                <path fill="#E8EAE9" d="M61.871 86.781L42.19 103.967l6.408 16.51a62.82 62.82 0 0 0 25.412-.959l5.799-16.067S70.62 87.689 61.87 86.78"/>
                <path fill="#CBD3D3" d="M80.276 89.156L65.41 102.004s6.952 12.882 7.625 17.75c.257-.059.513-.123.77-.186 2.265-4.55 9.164-18.514 10.009-21.47 1.012-3.544-3.537-8.942-3.537-8.942"/>
                <g transform="translate(51.364 100.614)">
                    <mask id="h" fill="#fff">
                        <use xlink:href="#g"/>
                    </mask>
                    <path fill="#CBD3D3" d="M19.746 7.92L17.114.315 2.967.247l1.706 4.648-4.53 3.432 3.343 5.36-.147 6.891a63.29 63.29 0 0 0 4.284.15 62.99 62.99 0 0 0 8.945-.64l-.576-7.468 3.754-4.7z" mask="url(#h)"/>
                </g>
                <path fill="#D9E3E3" d="M73.853 21.604c-.158-1.475.535-3.37.923-4.716.443-1.532 3.544-6.998 4.542-8.14 1.136-1.302 2.637-2.21 4.058-3.284 2.345-1.77 4.931-2.353 6.848-5.227 1.187-1.78 3.046-3.192 4.409-4.691.94 1.202.16 4.095.15 6.174-.018 3.487-1.946 10.01-3.927 12.659-2.28 3.05-3.602 6.026-6.504 8.468-1.65 1.388-3.753 2.174-5.875 2.83-1.34.414-2.988.426-4.394.888"/>
                <path fill="#AEB7C2" d="M76.342 22.337c.818-2.37 5.7-11.452 7.764-13.78 1.902-2.147 4.412-4.672 5.42-7.406-1.82 2.109-4.078 2.749-6.15 4.313-1.421 1.074-2.922 1.982-4.058 3.285-.998 1.14-4.1 6.607-4.542 8.14-.388 1.345-1.08 3.24-.923 4.715l.23 4.961a9.815 9.815 0 0 1 1.348-.32c.09-1.365.49-2.683.911-3.908"/>
                <path fill="#D9E3E3" d="M45.813 21.604c.158-1.475-.535-3.37-.923-4.716-.442-1.532-3.543-6.998-4.541-8.14-1.137-1.302-2.638-2.21-4.059-3.284-2.344-1.77-4.931-2.353-6.847-5.227-1.188-1.78-3.047-3.192-4.41-4.691-.94 1.202-.239 4.233-.228 6.312.018 3.487 2.024 9.871 4.006 12.52 2.279 3.05 3.602 6.027 6.503 8.469 1.65 1.388 3.753 2.174 5.875 2.83 1.34.414 2.989.426 4.394.888"/>
                <path fill="#AEB7C2" d="M43.324 22.337c-.818-2.37-5.7-11.452-7.763-13.78-1.902-2.147-4.413-4.672-5.422-7.406C31.96 3.26 34.22 3.9 36.29 5.464c1.421 1.074 2.922 1.982 4.059 3.285.998 1.14 4.099 6.607 4.541 8.14.388 1.345 1.081 3.24.923 4.715l-.23 4.961a9.789 9.789 0 0 0-1.348-.32c-.09-1.365-.489-2.683-.91-3.908"/>
                <path fill="#CBD3D3" d="M41.22 100.496c.47 3.938 3.332 16.369 7.889 19.576 0 0-.026-8.342 6.556-13.405 6.583-5.063-12.042-15.446-12.042-15.446l-2.402 9.275z"/>
                <path fill="#FFF" d="M60.32 84.124c-6.333-.001-21.11 4.2-22.316 8.33-1.818 6.225 4.84 20.378 8.297 21.597 1.145-2.976 8.239-12.358 8.239-12.358l14.443-.671 6.307 14.57c.846.35 9.883-19.069 8.877-22.786-.84-3.102-18.739-8.68-23.846-8.682"/>
                <path fill="#384649" d="M43.058 62.08c.299 4.635 1.974 20.253-2.573 24.701-3.473 3.397 14.407 14.38 14.407 14.38l6.109 2.035 6.37-2.301s17.15-9.1 13.623-13.601c-4.544-5.8-2.264-27.504-2.264-27.504"/>
                <path fill="#91A0AD" d="M76.353 73.846l4.386-6.206s2.687-9.876 2.687-12.544c0-1 .556-4.444.876-8.017.532-5.946-.681-17.385-.681-17.385-15.074-10.404-31.493-12.126-46.213 1.493 0 0-1.411 10.726-.504 15.171.907 4.446.534 4.67 1.29 9.56.616 3.986 2.634 12.187 2.634 12.187l5.289 7.39 30.236-1.65z"/>
                <path fill="#AEB7C2" d="M54.59 62.193l2.723-11.854 8.47-.297s1.817 11.632 2.724 12.743c.907 1.111-13.918-.592-13.918-.592"/>
                <g transform="translate(54.09 49.887)">
                    <mask id="j" fill="#fff">
                        <use xlink:href="#i"/>
                    </mask>
                    <path fill="#8A8F95" d="M-5.4 7.12c3.024.148 6.202-.067 7.412-.66 1.512-.592 3.542-1.242 5.055-1.242 1.511 0 3.348.342 4.861.934 3.025.889 5.211.605 8.539.605 1.815 0 3.933-.89 5.747-.593 1.514.297 2.725.89 4.237 1.483 1.21.591 1.816.888 2.118-.89.302-1.186 0-3.26-.302-4.446-.606-2.37-2.723-2.962-4.842-3.26-6.05-1.184-12.102-2.666-18.455-2.074C3.524-2.726-1.619-1.54-7.065-.355c-3.63.888-6.958 2.074-10.59 2.37-2.117.296-3.327 1.186-2.117 3.26 1.21 1.482 3.026 2.372 4.538 2.372 1.513 0 3.026-.594 4.538-.594h3.631" mask="url(#j)"/>
                </g>
                <g>
                    <path fill="#272A2D" d="M24.844 108.796c-.756-4.005.855-12.044 2.825-14.337 1.97-2.292 8.75-8.343 13.13-11.337l1.883-.735a11.99 11.99 0 0 1-1.318 3.28l4.437 19.965-20.957 3.164zM97.147 108.328c.56-4.133-1.005-11.663-2.9-13.869-1.97-2.292-9.257-8.343-13.635-11.337l-1.457-.268c.19.973.481 2.084.93 2.975l-3.863 19.817 20.406 3.083c.188-.14.362-.276.519-.4"/>
                    <path fill="#AEB7C2" d="M54.136 54.98l2.103-8.82-1.389-11.644.791-12.805 9.992.128.582 12.47-1.598 11.851c.05.168 4.118 10.183 2.7 10.442-2.731.498-13.181-1.622-13.181-1.622"/>
                    <path fill="#13171B" d="M59.776 7.732c-11.856 0-21.345 7.08-27.347 13.97-7.603 8.728-8.195 17.94-5.897 26.216 2.584 9.304 12.613 12.907 12.613 12.907L38.02 50.91l1.564-17.316s3.779-11.432 21.086-11.346c17.306.086 21.842 11.304 21.842 11.304l1.947 17.074-1.915 9.748c1.857 0 12.508-7.403 13.286-15.833.603-6.528-1.006-15.945-8.046-23.074-5.714-5.785-15.97-13.735-28.009-13.735"/>
                    <path fill="#627479" d="M81.824 45.236l-5.064 5.61-33.106.064-3.94-3.75 2.588-7.455 13.108-4.103c-.695-1.99-.268-3.95.231-5.607 2.08 1.657 2.48 3.553 2.688 5.658l3.962.07c.12-3.747.102-5.977 1.826-7.098 1.688 1.894 1.99 4.27 1.346 6.977l11.953 2.778 4.408 6.856z"/>
                    <path fill="#FFF" d="M54.184 45.446c-1.266-2.016-1.904-3.179-5.038-3.558-2.449-.295-5.75 2.316-5.601 4.178 0 0 .864 1.878 4.042 1.852 3.236-.028 6.468-1.387 6.468-1.387"/>
                    <path fill="#0E0C0E" d="M50.411 45.245c-1.088.359-2.393.023-2.92-.75-.524-.774-.07-1.693 1.018-2.053 1.087-.359 2.394-.024 2.919.75.525.774.07 1.693-1.017 2.053"/>
                    <path fill="#000" d="M49.933 44.166c-.52.172-1.146.011-1.397-.36-.251-.37-.033-.809.486-.981.52-.172 1.147-.011 1.399.359.25.37.031.81-.488.982"/>
                    <path fill="#FFF" d="M50.961 43.17c-.025.125-.268.197-.541.16-.274-.037-.475-.17-.45-.296.026-.126.268-.198.542-.16.273.036.475.17.449.295M66.215 45.446c1.266-2.016 1.904-3.179 5.038-3.558 2.449-.295 5.75 2.316 5.601 4.178 0 0-.864 1.878-4.042 1.852-3.236-.028-6.468-1.387-6.468-1.387"/>
                    <path fill="#0E0C0E" d="M70.139 45.2c1.066.407 2.388.133 2.955-.616.565-.748.161-1.687-.906-2.096-1.067-.408-2.39-.134-2.955.615-.566.75-.16 1.687.906 2.096"/>
                    <path fill="#000" d="M70.703 44.105c.48.185 1.075.06 1.33-.277.255-.336.071-.759-.406-.943-.48-.184-1.078-.06-1.333.277-.254.337-.07.76.409.943"/>
                    <path fill="#FFF" d="M71.472 42.918c-.015.128.196.254.47.284.275.028.51-.051.524-.179.015-.128-.196-.254-.47-.284-.275-.028-.51.052-.524.18"/>
                    <path fill="#1C1A1C" d="M54.863 33.122c-3.375 1.521-5.93 2.45-10.63 3.574-1.49.71-3.364 3.285-3.405 4.766 1.634-.149 2.994-2.16 4.493-2.47 3.888-.809 7.716-.796 9.697-2.07 1.034-1.047.496-2.419.377-3.506a.378.378 0 0 0-.532-.294M65.622 31.589c3.442 1.567 6.008 3.4 10.769 4.538 1.49.711 3.363 3.286 3.404 4.767-1.634-.15-2.995-2.16-4.493-2.471-3.889-.808-7.716-1.341-9.697-2.616-1.077-1.09-.452-2.82-.37-3.99a.273.273 0 0 1 .387-.228"/>
                    <g transform="translate(50.273 101.16)">
                        <mask id="l" fill="#fff">
                            <use xlink:href="#k"/>
                        </mask>
                        <path fill="#13171B" d="M16.87 9.177l4.355-3.507L18.987.5l-4.82 1.938-6.905.166-3.74-1.072-3.42 4.742L4.625 9.31l1.818 4.31.255 6.526c.67.021 1.34.036 2.016.036 2.234 0 4.439-.12 6.612-.349l-.401-5.972 1.945-4.684z" mask="url(#l)"/>
                    </g>
                    <path fill="#272A2D" d="M45.576 104.62l-3.49.465c-3.894 2.242-7.959 7.296-10.064 10.15a62.065 62.065 0 0 0 21.45 5.861c-3.895-8.452-7.896-16.477-7.896-16.477M76.854 103.76l-5.471 16.35a62.064 62.064 0 0 0 19.289-7.396c-1.9-3.045-4.252-6.728-5.515-8.36l-8.303-.595z"/>
                    <path fill="#000" d="M81.52 31.784c.702 1.06.993 1.768.993 1.768l1.947 17.073-1.915 9.75c1.857 0 12.508-7.405 13.286-15.834.213-2.306.145-4.973-.337-7.772-2.528-.83-6.726-1.073-9.226-2.02 1.069-.657 1.696-1.497 1.904-2.512 0 0-4.856.07-6.652-.453M41.309 30.498c-1.531.287-9.404-.597-9.404-.597.032 1.06.405 2.026 1.425 2.812-.567.171-1.151.307-1.774.382-1.795.216-3.553.05-5.274-.334-1.445 5.183-1.09 10.33.25 15.157 2.584 9.304 12.613 12.908 12.613 12.908l-1.124-9.916 1.564-17.316s.448-1.34 1.724-3.096"/>
                    <path fill="#000" d="M93.155 51.724c-3.388-2.086-6.717-9.905-6.717-9.905 1.308.438 2.896.43 4.547-.255-1.15-2.947-4.545-4.464-6.977-7.773 2.466.002 3.81-1.032 4.301-1.729-1.81-1.417-5.215-1.825-8.514-2.479-.033.599 2.88 4.97 2.873 5.571l.965 17.242-1.16 8.301c.798 1.62 2.527 2.464 5.414.949-2.296-1.22-1.243-6.01-.468-9.61 1.49 1.223 3.89.947 5.736-.312M75.533 24.93c-2.487-2.452-8.316-4.538-12.656-2.608 4.013 4.404 7.394 9.947 11.864 12.195.462-3.435 1.601-7.836.792-9.587M51.937 23.628c-7.112.553-9.838 4.105-14.829 5.687 4.013 4.404.207 6.786 1.857 11.152 2.69-7.924 10.304-6.605 12.972-16.839"/>
                    <path fill="#000" d="M41.912 28.31c-3.262-.413-7.69-.479-10.522 1.004 2.343 2.939 6.28 3.714 6.28 3.714a32.131 32.131 0 0 1-6.797 6.725c1.137.654 2.612.984 3.41.207-.95 4.85-5.525 7.412-8.935 11.368 3.41.361 8.908 2.16 10.183-.081.213 3.485.61 8.607-.731 11.406 2.308.211 3.961-.077 4.345-1.828l-1.157-9.548 1.67-18.483s2.232-3.808 2.254-4.484M41.137 53.623c0 2.347.937 7.983 1.41 9.247a5.716 5.716 0 0 0 4.726 3.642s2.135-2.249 3.992-2.405c1.857-.156 3.597-.782 4.442-2.034.843-1.252 1.972-1.722 3.66-1.722h1.52c1.687 0 3.206.47 4.05 1.722.844 1.252 2.194 1.878 4.051 2.034 1.856.156 4.086 1.597 4.086 1.597 2.7-.313 4.019-1.848 4.85-3.733.545-1.238 1.19-6 1.19-8.348H41.137z"/>
                    <path fill="#000" d="M39.825 46.8c0 2.348.037 5.422.557 6.686.59 1.432 2.223 3.329 5.187 3.642 0 0 3.335.313 5.374.156 2.04-.156 3.949-.782 4.876-2.034.926-1.252 2.165-1.722 4.018-1.722h1.668c1.853 0 3.52.47 4.446 1.722.927 1.252 2.409 1.878 4.448 2.034 2.038.157 5.372-.156 5.372-.156 2.965-.313 4.412-1.849 5.324-3.734.598-1.238.42-4.246.42-6.593 0-.578-41.69-.578-41.69 0"/>
                    <path fill="#A3AFB9" d="M66.375 79.582c.453.043.914.058 1.397.02.092-.008.183-.022.274-.032l-1.671.012"/>
                    <path fill="#000" d="M42.034 88.683l-.67-3.015a11.99 11.99 0 0 0 1.318-3.281l-1.884.735c-4.379 2.994-11.16 9.045-13.129 11.337-.78.908-1.503 2.718-2.046 4.822-2.792 1.743-5.973 3.83-8.623 5.842a62.472 62.472 0 0 0 5.33 4.331l2.374-1.742a35.357 35.357 0 0 1-.016-2.483c5.153-6.498 9.01-11.218 17.346-16.546M79.33 89.696c5.961 3.277 15.087 11.825 17.905 15.673.04 1.044.031 2.054-.088 2.96v-.006a62.637 62.637 0 0 0 3.638-3.034c-1.15-.939-2.501-1.993-3.88-3.044-.514-3.256-1.527-6.47-2.658-7.786-1.97-2.293-9.257-8.343-13.635-11.337l-1.457-.268c.19.972.481 2.083.93 2.975l-.754 3.867zM76.644 76.685c0 3.335-2.786 13.15-6.637 14.983-.47.225-1.888 5.263-2.273 5.582-.898.743-1.99-2.35-2.928-1.826-.6.335-3.26 4.436-4.198 4.436-.67 0-2.99-4.323-3.657-4.7-.568-.322-2.583 1.976-3.126 1.547-.62-.49-1.392-3.826-2.067-4.315-4.47-3.235-6.684-12.588-6.684-16.042 0-5.274 7.01-.287 14.762-.287 7.751 0 16.808-4.651 16.808.622"/>
                    <path fill="#A3AFB9" d="M43.019 67.81c1.244 5.063 1.128 8.283 4.052 11.947 2.676 3.353 5.007 4.754 5.007 4.754s1.122.318 1.355 1.816c.28 1.802 1.44 2.962 1.83 3.533 1.347-.55 2.584-2.196 3.204-3.824 0 0 .742 3.462 2.174 5.825 3.149-1.588 3.255-5.196 3.255-5.196s2.699 2.183 3.001 3.918c0 0 2.82-4.085 2.593-6.327 0 0 3.306-1.533 5.203-4.317 2.618-3.841 3.152-5.46 3.503-11.373.217-3.647-35.177-.756-35.177-.756"/>
                    <path fill="#E9EBEA" d="M43.247 67.96c0-1.26.131-3.885 1.2-6.297.358-.81 1.038-1.37.342-1.917-1.376-1.08-3.568-5.024.009-6.176 2.697-.87 4.51.747 6.432.981 1.685.206 3.703-1.522 9.219-1.58 3.338-.035 7.275.904 8.422 1.354 1.964.771 3.209-1.55 5.787-.875 3.805.996 1.639 4.595.853 5.715-.439.626.333 1.386.68 1.86 1.858 2.18 2.336 5.386 2.222 6.747 0 1.805-2.19 4.002-5.064 4.209-2.367 3.444-4.386.723-13.169.723-9.31 0-10.792 2.557-12.823-1.137-2.119-.31-3.918-1.889-4.11-3.606"/>
                    <path fill="#FFF" d="M60.919 52.971c-2.726 0-5.474.484-6.93.893-1.456.41 3.576 3.358 6.184 3.358 3.255 0 7.824-3.211 6.852-3.673-.645-.393-3.38-.578-6.106-.578"/>
                    <path fill="#000" d="M70.028 70.43c-1.755 2.195-2.46-1.257-9.92-1.257-6.339 0-8.314 2.621-9.392.767-.818-1.407 5.098-7.287 9.523-7.287 5.827 0 11.167 6.055 9.79 7.777"/>
                    <path fill="#FFF" d="M65.633 64.713l-4.996-1.28-5.193.797-2.739 3.002 1.33-.398.15 2.52s3.9.471 5.658.082c.125-.213-.11-1.247.38-1.247.447 0 .292.97.385 1.214 1.702.238 5.664.039 5.664.039l.292-2.837.946.182-1.877-2.074z"/>
                    <path fill="#AEB7C2" d="M70.028 68.737s-1.38-2.876-2.983-4.585c-1.988-2.12-4.46-3.088-6.724-2.144-2.177-.747-4.127-.104-6.789 2.454-1.586 1.525-2.749 4.248-2.536 4.105 4.69-3.142 5.305-4.42 9.325-4.674 4.295-.271 4.844 1.19 9.707 4.844"/>
                    <path fill="#000" d="M37.608 52.327l2.292-2.763-.076-2.763-2.302 4.109z"/>
                    <path fill="#13171B" d="M38.16 52.637l1.74-2.032v-1.041l-2.292 2.763z"/>
                    <path fill="#000" d="M84.29 52.327l-2.837-2.763.076-2.763 2.848 4.109z"/>
                    <path fill="#13171B" d="M83.74 52.637l-2.287-2.032v-1.041l2.838 2.763z"/>
                </g>
            </g>
        </g>
        <mask id="n" fill="#fff">
            <use xlink:href="#m"/>
        </mask>
        <g mask="url(#n)">
            <g transform="translate(17 110.16)">
                <mask id="p" fill="#fff">
                    <use xlink:href="#o"/>
                </mask>
                <path fill="#13171B" d="M83.785 10.13C79.657 6.76 72.928 1.893 71.714 1.09L15.532.001S6.274 5.202 0 9.962C11.09 20.04 25.821 26.182 41.987 26.182c16.075 0 30.73-6.075 41.798-16.052" mask="url(#p)"/>
            </g>
            <path fill="#E8EAE9" d="M61.871 101.781L42.19 118.967l6.408 16.51a62.82 62.82 0 0 0 25.412-.959l5.799-16.067s-9.188-15.762-17.938-16.67"/>
            <path fill="#CBD3D3" d="M80.276 104.156L65.41 117.004s6.952 12.882 7.625 17.75c.257-.059.513-.123.77-.186 2.265-4.55 9.164-18.514 10.009-21.47 1.012-3.544-3.537-8.942-3.537-8.942"/>
            <g transform="translate(51.364 115.614)">
                <mask id="r" fill="#fff">
                    <use xlink:href="#q"/>
                </mask>
                <path fill="#CBD3D3" d="M19.746 7.92L17.114.315 2.967.247l1.706 4.648-4.53 3.432 3.343 5.36-.147 6.891a63.29 63.29 0 0 0 4.284.15 62.99 62.99 0 0 0 8.945-.64l-.576-7.468 3.754-4.7z" mask="url(#r)"/>
            </g>
            <path fill="#D9E3E3" d="M73.853 36.604c-.158-1.475.535-3.37.923-4.716.443-1.532 3.544-6.998 4.542-8.14 1.136-1.302 2.637-2.21 4.058-3.284 2.345-1.77 4.931-2.353 6.848-5.227 1.187-1.78 3.046-3.192 4.409-4.691.94 1.202.16 4.095.15 6.174-.018 3.487-1.946 10.01-3.927 12.659-2.28 3.05-3.602 6.026-6.504 8.468-1.65 1.388-3.753 2.174-5.875 2.83-1.34.414-2.988.426-4.394.888"/>
            <path fill="#AEB7C2" d="M76.342 37.337c.818-2.37 5.7-11.452 7.764-13.78 1.902-2.147 4.412-4.672 5.42-7.406-1.82 2.109-4.078 2.749-6.15 4.313-1.421 1.074-2.922 1.982-4.058 3.285-.998 1.14-4.1 6.607-4.542 8.14-.388 1.345-1.08 3.24-.923 4.715l.23 4.961a9.815 9.815 0 0 1 1.348-.32c.09-1.365.49-2.683.911-3.908"/>
            <path fill="#D9E3E3" d="M45.813 36.604c.158-1.475-.535-3.37-.923-4.716-.442-1.532-3.543-6.998-4.541-8.14-1.137-1.302-2.638-2.21-4.059-3.284-2.344-1.77-4.931-2.353-6.847-5.227-1.188-1.78-3.047-3.192-4.41-4.691-.94 1.202-.239 4.233-.228 6.312.018 3.487 2.024 9.871 4.006 12.52 2.279 3.05 3.602 6.027 6.503 8.469 1.65 1.388 3.753 2.174 5.875 2.83 1.34.414 2.989.426 4.394.888"/>
            <path fill="#AEB7C2" d="M43.324 37.337c-.818-2.37-5.7-11.452-7.763-13.78-1.902-2.147-4.413-4.672-5.422-7.406 1.82 2.109 4.08 2.749 6.151 4.313 1.421 1.074 2.922 1.982 4.059 3.285.998 1.14 4.099 6.607 4.541 8.14.388 1.345 1.081 3.24.923 4.715l-.23 4.961a9.789 9.789 0 0 0-1.348-.32c-.09-1.365-.489-2.683-.91-3.908"/>
            <path fill="#CBD3D3" d="M41.22 115.496c.47 3.938 3.332 16.369 7.889 19.576 0 0-.026-8.342 6.556-13.405 6.583-5.063-12.042-15.446-12.042-15.446l-2.402 9.275z"/>
            <path fill="#FFF" d="M60.32 99.124c-6.333-.001-21.11 4.2-22.316 8.33-1.818 6.225 4.84 20.378 8.297 21.597 1.145-2.976 8.239-12.358 8.239-12.358l14.443-.671 6.307 14.57c.846.35 9.883-19.069 8.877-22.786-.84-3.102-18.739-8.68-23.846-8.682"/>
            <path fill="#384649" d="M43.058 77.08c.299 4.635 1.974 20.253-2.573 24.701-3.473 3.397 14.407 14.38 14.407 14.38l6.109 2.035 6.37-2.301s17.15-9.1 13.623-13.601c-4.544-5.8-2.264-27.504-2.264-27.504"/>
            <path fill="#91A0AD" d="M76.353 88.846l4.386-6.206s2.687-9.876 2.687-12.544c0-1 .556-4.444.876-8.017.532-5.946-.681-17.385-.681-17.385-15.074-10.404-31.493-12.126-46.213 1.493 0 0-1.411 10.726-.504 15.171.907 4.446.534 4.67 1.29 9.56.616 3.986 2.634 12.187 2.634 12.187l5.289 7.39 30.236-1.65z"/>
            <path fill="#AEB7C2" d="M54.59 77.193l2.723-11.854 8.47-.297s1.817 11.632 2.724 12.743c.907 1.111-13.918-.592-13.918-.592"/>
            <g transform="translate(54.09 64.887)">
                <mask id="t" fill="#fff">
                    <use xlink:href="#s"/>
                </mask>
                <path fill="#8A8F95" d="M-5.4 7.12c3.024.148 6.202-.067 7.412-.66 1.512-.592 3.542-1.242 5.055-1.242 1.511 0 3.348.342 4.861.934 3.025.889 5.211.605 8.539.605 1.815 0 3.933-.89 5.747-.593 1.514.297 2.725.89 4.237 1.483 1.21.591 1.816.888 2.118-.89.302-1.186 0-3.26-.302-4.446-.606-2.37-2.723-2.962-4.842-3.26-6.05-1.184-12.102-2.666-18.455-2.074C3.524-2.726-1.619-1.54-7.065-.355c-3.63.888-6.958 2.074-10.59 2.37-2.117.296-3.327 1.186-2.117 3.26 1.21 1.482 3.026 2.372 4.538 2.372 1.513 0 3.026-.594 4.538-.594h3.631" mask="url(#t)"/>
            </g>
            <g>
                <path fill="#272A2D" d="M24.844 123.796c-.756-4.005.855-12.044 2.825-14.337 1.97-2.292 8.75-8.343 13.13-11.337l1.883-.735a11.99 11.99 0 0 1-1.318 3.28l4.437 19.965-20.957 3.164zM97.147 123.328c.56-4.133-1.005-11.663-2.9-13.869-1.97-2.292-9.257-8.343-13.635-11.337l-1.457-.268c.19.973.481 2.084.93 2.975l-3.863 19.817 20.406 3.083c.188-.14.362-.276.519-.4"/>
                <path fill="#AEB7C2" d="M54.136 69.98l2.103-8.82-1.389-11.644.791-12.805 9.992.128.582 12.47-1.598 11.851c.05.168 4.118 10.183 2.7 10.442-2.731.498-13.181-1.622-13.181-1.622"/>
                <path fill="#13171B" d="M59.776 22.732c-11.856 0-21.345 7.08-27.347 13.97-7.603 8.728-8.195 17.94-5.897 26.216 2.584 9.304 12.613 12.907 12.613 12.907L38.02 65.91l1.564-17.316s3.779-11.432 21.086-11.346c17.306.086 21.842 11.304 21.842 11.304l1.947 17.074-1.915 9.748c1.857 0 12.508-7.403 13.286-15.833.603-6.528-1.006-15.945-8.046-23.074-5.714-5.785-15.97-13.735-28.009-13.735"/>
                <path fill="#627479" d="M81.824 60.236l-5.064 5.61-33.106.064-3.94-3.75 2.588-7.455 13.108-4.103c-.695-1.99-.268-3.95.231-5.607 2.08 1.657 2.48 3.553 2.688 5.658l3.962.07c.12-3.747.102-5.977 1.826-7.098 1.688 1.894 1.99 4.27 1.346 6.977l11.953 2.778 4.408 6.856z"/>
                <path fill="#FFF" d="M54.184 60.446c-1.266-2.016-1.904-3.179-5.038-3.558-2.449-.295-5.75 2.316-5.601 4.178 0 0 .864 1.878 4.042 1.852 3.236-.028 6.468-1.387 6.468-1.387"/>
                <path fill="#0E0C0E" d="M50.411 60.245c-1.088.359-2.393.023-2.92-.75-.524-.774-.07-1.693 1.018-2.053 1.087-.359 2.394-.024 2.919.75.525.774.07 1.693-1.017 2.053"/>
                <path fill="#000" d="M49.933 59.166c-.52.172-1.146.011-1.397-.36-.251-.37-.033-.809.486-.981.52-.172 1.147-.011 1.399.359.25.37.031.81-.488.982"/>
                <path fill="#FFF" d="M50.961 58.17c-.025.125-.268.197-.541.16-.274-.037-.475-.17-.45-.296.026-.126.268-.198.542-.16.273.036.475.17.449.295M66.215 60.446c1.266-2.016 1.904-3.179 5.038-3.558 2.449-.295 5.75 2.316 5.601 4.178 0 0-.864 1.878-4.042 1.852-3.236-.028-6.468-1.387-6.468-1.387"/>
                <path fill="#0E0C0E" d="M70.139 60.2c1.066.407 2.388.133 2.955-.616.565-.748.161-1.687-.906-2.096-1.067-.408-2.39-.134-2.955.615-.566.75-.16 1.687.906 2.096"/>
                <path fill="#000" d="M70.703 59.105c.48.185 1.075.06 1.33-.277.255-.336.071-.759-.406-.943-.48-.184-1.078-.06-1.333.277-.254.337-.07.76.409.943"/>
                <path fill="#FFF" d="M71.472 57.918c-.015.128.196.254.47.284.275.028.51-.051.524-.179.015-.128-.196-.254-.47-.284-.275-.028-.51.052-.524.18"/>
                <path fill="#1C1A1C" d="M54.863 48.122c-3.375 1.521-5.93 2.45-10.63 3.574-1.49.71-3.364 3.285-3.405 4.766 1.634-.149 2.994-2.16 4.493-2.47 3.888-.809 7.716-.796 9.697-2.07 1.034-1.047.496-2.419.377-3.506a.378.378 0 0 0-.532-.294M65.622 46.589c3.442 1.567 6.008 3.4 10.769 4.538 1.49.711 3.363 3.286 3.404 4.767-1.634-.15-2.995-2.16-4.493-2.471-3.889-.808-7.716-1.341-9.697-2.616-1.077-1.09-.452-2.82-.37-3.99a.273.273 0 0 1 .387-.228"/>
                <g transform="translate(50.273 116.16)">
                    <mask id="v" fill="#fff">
                        <use xlink:href="#u"/>
                    </mask>
                    <path fill="#13171B" d="M16.87 9.177l4.355-3.507L18.987.5l-4.82 1.938-6.905.166-3.74-1.072-3.42 4.742L4.625 9.31l1.818 4.31.255 6.526c.67.021 1.34.036 2.016.036 2.234 0 4.439-.12 6.612-.349l-.401-5.972 1.945-4.684z" mask="url(#v)"/>
                </g>
                <path fill="#272A2D" d="M45.576 119.62l-3.49.465c-3.894 2.242-7.959 7.296-10.064 10.15a62.065 62.065 0 0 0 21.45 5.861c-3.895-8.452-7.896-16.477-7.896-16.477M76.854 118.76l-5.471 16.35a62.064 62.064 0 0 0 19.289-7.396c-1.9-3.045-4.252-6.728-5.515-8.36l-8.303-.595z"/>
                <path fill="#000" d="M81.52 46.784c.702 1.06.993 1.768.993 1.768l1.947 17.073-1.915 9.75c1.857 0 12.508-7.405 13.286-15.834.213-2.306.145-4.973-.337-7.772-2.528-.83-6.726-1.073-9.226-2.02 1.069-.657 1.696-1.497 1.904-2.512 0 0-4.856.07-6.652-.453M41.309 45.498c-1.531.287-9.404-.597-9.404-.597.032 1.06.405 2.026 1.425 2.812-.567.171-1.151.307-1.774.382-1.795.216-3.553.05-5.274-.334-1.445 5.183-1.09 10.33.25 15.157 2.584 9.304 12.613 12.908 12.613 12.908l-1.124-9.916 1.564-17.316s.448-1.34 1.724-3.096"/>
                <path fill="#000" d="M93.155 66.724c-3.388-2.086-6.717-9.905-6.717-9.905 1.308.438 2.896.43 4.547-.255-1.15-2.947-4.545-4.464-6.977-7.773 2.466.002 3.81-1.032 4.301-1.729-1.81-1.417-5.215-1.825-8.514-2.479-.033.599 2.88 4.97 2.873 5.571l.965 17.242-1.16 8.301c.798 1.62 2.527 2.464 5.414.949-2.296-1.22-1.243-6.01-.468-9.61 1.49 1.223 3.89.947 5.736-.312M75.533 39.93c-2.487-2.452-8.316-4.538-12.656-2.608 4.013 4.404 7.394 9.947 11.864 12.195.462-3.435 1.601-7.836.792-9.587M51.937 38.628c-7.112.553-9.838 4.105-14.829 5.687 4.013 4.404.207 6.786 1.857 11.152 2.69-7.924 10.304-6.605 12.972-16.839"/>
                <path fill="#000" d="M41.912 43.31c-3.262-.413-7.69-.479-10.522 1.004 2.343 2.939 6.28 3.714 6.28 3.714a32.131 32.131 0 0 1-6.797 6.725c1.137.654 2.612.984 3.41.207-.95 4.85-5.525 7.412-8.935 11.368 3.41.361 8.908 2.16 10.183-.081.213 3.485.61 8.607-.731 11.406 2.308.211 3.961-.077 4.345-1.828l-1.157-9.548 1.67-18.483s2.232-3.808 2.254-4.484M41.137 68.623c0 2.347.937 7.983 1.41 9.247a5.716 5.716 0 0 0 4.726 3.642s2.135-2.249 3.992-2.405c1.857-.156 3.597-.782 4.442-2.034.843-1.252 1.972-1.722 3.66-1.722h1.52c1.687 0 3.206.47 4.05 1.722.844 1.252 2.194 1.878 4.051 2.034 1.856.156 4.086 1.597 4.086 1.597 2.7-.313 4.019-1.848 4.85-3.733.545-1.238 1.19-6 1.19-8.348H41.137z"/>
                <path fill="#000" d="M39.825 61.8c0 2.348.037 5.422.557 6.686.59 1.432 2.223 3.329 5.187 3.642 0 0 3.335.313 5.374.156 2.04-.156 3.949-.782 4.876-2.034.926-1.252 2.165-1.722 4.018-1.722h1.668c1.853 0 3.52.47 4.446 1.722.927 1.252 2.409 1.878 4.448 2.034 2.038.157 5.372-.156 5.372-.156 2.965-.313 4.412-1.849 5.324-3.734.598-1.238.42-4.246.42-6.593 0-.578-41.69-.578-41.69 0"/>
                <path fill="#A3AFB9" d="M66.375 94.582c.453.043.914.058 1.397.02.092-.008.183-.022.274-.032l-1.671.012"/>
                <path fill="#000" d="M42.034 103.683l-.67-3.015a11.99 11.99 0 0 0 1.318-3.281l-1.884.735c-4.379 2.994-11.16 9.045-13.129 11.337-.78.908-1.503 2.718-2.046 4.822-2.792 1.743-5.973 3.83-8.623 5.842a62.472 62.472 0 0 0 5.33 4.331l2.374-1.742a35.357 35.357 0 0 1-.016-2.483c5.153-6.498 9.01-11.218 17.346-16.546M79.33 104.696c5.961 3.277 15.087 11.825 17.905 15.673.04 1.044.031 2.054-.088 2.96v-.006a62.637 62.637 0 0 0 3.638-3.034c-1.15-.939-2.501-1.993-3.88-3.044-.514-3.256-1.527-6.47-2.658-7.786-1.97-2.293-9.257-8.343-13.635-11.337l-1.457-.268c.19.972.481 2.083.93 2.975l-.754 3.867zM76.644 91.685c0 3.335-2.786 13.15-6.637 14.983-.47.225-1.888 5.263-2.273 5.582-.898.743-1.99-2.35-2.928-1.826-.6.335-3.26 4.436-4.198 4.436-.67 0-2.99-4.323-3.657-4.7-.568-.322-2.583 1.976-3.126 1.547-.62-.49-1.392-3.826-2.067-4.315-4.47-3.235-6.684-12.588-6.684-16.042 0-5.274 7.01-.287 14.762-.287 7.751 0 16.808-4.651 16.808.622"/>
                <path fill="#A3AFB9" d="M43.019 82.81c1.244 5.063 1.128 8.283 4.052 11.947 2.676 3.353 5.007 4.754 5.007 4.754s1.122.318 1.355 1.816c.28 1.802 1.44 2.962 1.83 3.533 1.347-.55 2.584-2.196 3.204-3.824 0 0 .742 3.462 2.174 5.825 3.149-1.588 3.255-5.196 3.255-5.196s2.699 2.183 3.001 3.918c0 0 2.82-4.085 2.593-6.327 0 0 3.306-1.533 5.203-4.317 2.618-3.841 3.152-5.46 3.503-11.373.217-3.647-35.177-.756-35.177-.756"/>
                <path fill="#E9EBEA" d="M43.247 82.96c0-1.26.131-3.885 1.2-6.297.358-.81 1.038-1.37.342-1.917-1.376-1.08-3.568-5.024.009-6.176 2.697-.87 4.51.747 6.432.981 1.685.206 3.703-1.522 9.219-1.58 3.338-.035 7.275.904 8.422 1.354 1.964.771 3.209-1.55 5.787-.875 3.805.996 1.639 4.595.853 5.715-.439.626.333 1.386.68 1.86 1.858 2.18 2.336 5.386 2.222 6.747 0 1.805-2.19 4.002-5.064 4.209-2.367 3.444-4.386.723-13.169.723-9.31 0-10.792 2.557-12.823-1.137-2.119-.31-3.918-1.889-4.11-3.606"/>
                <path fill="#FFF" d="M60.919 67.971c-2.726 0-5.474.484-6.93.893-1.456.41 3.576 3.358 6.184 3.358 3.255 0 7.824-3.211 6.852-3.673-.645-.393-3.38-.578-6.106-.578"/>
                <path fill="#000" d="M70.028 85.43c-1.755 2.195-2.46-1.257-9.92-1.257-6.339 0-8.314 2.621-9.392.767-.818-1.407 5.098-7.287 9.523-7.287 5.827 0 11.167 6.055 9.79 7.777"/>
                <path fill="#FFF" d="M65.633 79.713l-4.996-1.28-5.193.797-2.739 3.002 1.33-.398.15 2.52s3.9.471 5.658.082c.125-.213-.11-1.247.38-1.247.447 0 .292.97.385 1.214 1.702.238 5.664.039 5.664.039l.292-2.837.946.182-1.877-2.074z"/>
                <path fill="#AEB7C2" d="M70.028 83.737s-1.38-2.876-2.983-4.585c-1.988-2.12-4.46-3.088-6.724-2.144-2.177-.747-4.127-.104-6.789 2.454-1.586 1.525-2.749 4.248-2.536 4.105 4.69-3.142 5.305-4.42 9.325-4.674 4.295-.271 4.844 1.19 9.707 4.844"/>
                <path fill="#000" d="M37.608 67.327l2.292-2.763-.076-2.763-2.302 4.109z"/>
                <path fill="#13171B" d="M38.16 67.637l1.74-2.032v-1.041l-2.292 2.763z"/>
                <path fill="#000" d="M84.29 67.327l-2.837-2.763.076-2.763 2.848 4.109z"/>
                <path fill="#13171B" d="M83.74 67.637l-2.287-2.032v-1.041l2.838 2.763z"/>
            </g>
        </g>
    </g>
</svg>
