<svg xmlns="http://www.w3.org/2000/svg" xmlns:xlink="http://www.w3.org/1999/xlink" viewBox="0 0 16 16">
    <defs>
        <path id="a" d="M.093.067h3.533v9.476H.093z"/>
    </defs>
    <g fill="none" fill-rule="evenodd">
        <g transform="translate(3.678 1)">
            <mask id="b" fill="#fff">
                <use xlink:href="#a"/>
            </mask>
            <path fill="#C5D1D1" d="M3.569 8.398c.096-.33.045-.85.03-1.208-.02-.408-.382-2.023-.526-2.397-.165-.427-.417-.8-.647-1.203-.38-.664-.86-1.074-1.106-1.953C1.167 1.092.866.563.667.067.43.25.223 1.009.133 1.5c-.152.824.165 2.57.434 3.403.31.96.436 1.8.895 2.682.26.5.637.908 1.022 1.286.244.239.565.415.82.672" mask="url(#b)"/>
        </g>
        <path fill="#738091" d="M5.454 8.109c-.054-.645-.515-1.075-.608-1.822-.093-.752-.137-1.713.236-3.448.262.69.748 1.29 1.083 1.877.23.403.483.776.647 1.202.145.374.508 1.99.526 2.397.016.358.067.878-.03 1.21l-.265 1.144a2.622 2.622 0 0 0-.25-.218c.044-.33-1.31-2.01-1.339-2.342"/>
        <path fill="#13171B" d="M14.851 10.652c.081.506-.97 1.523-2.089 1.857-2.627.786-6.137 1.523-9.444 1.523-2.504 0-4.354-.597-2.67-2.022 1.622-1.372 3.964-1.374 6.083-1.861 1.932-.445 1.282.331 3.836.337 2.175.005 4.172-.54 4.284.166"/>
        <path fill="#627479" d="M12.77 12.326c-2.626.785-6.116 1.42-9.422 1.42-2.505 0-4.39-.377-2.706-1.803 1.622-1.371 3.979-1.49 6.097-1.978 1.932-.445 1.283.331 3.836.337 2.176.006 4.168-.414 4.28.292.081.506-.965 1.397-2.084 1.732z" opacity=".5"/>
        <path fill="#13171B" d="M14.854 10.594c-.113-.706-2.105-.286-4.28-.292-2.554-.006-1.904-.782-3.837-.337-2.118.487-4.475.607-6.097 1.978-.506.429-.688.762-.63 1.02 1.238-.52 2.49-.881 3.804-1.235.01-.003.018-.002.026-.002a.086.086 0 0 1 .08-.043c1.373.003 2.716-.31 4.084-.393.626-.038 1.257-.013 1.882-.076.385-.039.789-.13 1.144.066a.101.101 0 0 1 .054.105c.816.235 1.647.407 2.47.613.774-.416 1.36-1.02 1.3-1.404"/>
        <path fill="#3C3F42" d="M12.794 10.879c-1.096.616-7.3 1.251-9.668.425L4.337 7.1c.221-.76.833-1.478 1.631-1.499 2.172-.057 4.81.592 6.193 1.424.385.231.374.442.41.887l.223 2.967z"/>
        <path fill="#13171B" d="M12.57 7.912c-.035-.445-.024-.656-.409-.887C10.777 6.193 8.14 5.544 5.968 5.6c-.798.021-1.41.738-1.63 1.5l-1.212 4.203c.199.07.426.13.675.183.19-.59.482-1.144.64-1.747.165-.635.249-1.281.47-1.903.337-.949 1.074-1.466 2.118-1.283.63.11 1.217.445 1.761.762.425.247.821.545 1.12.937.335.443.491.968.677 1.483.206.57.371 1.023.552 1.6.797-.148 1.431-.225 1.67-.458l-.238-2.966z"/>
        <path fill="#C5D1D1" d="M10.56 9.811c.003-.344.202-.828.321-1.166.136-.386.951-1.83 1.198-2.147.28-.362.63-.647.967-.967.556-.529 1.134-.785 1.625-1.557.304-.479.745-.9 1.08-1.319.174.244.152 1.03.097 1.526-.094.832-.903 2.414-1.402 3.136-.574.83-.938 1.6-1.633 2.314-.394.406-.872.688-1.351.941-.302.16-.662.237-.98.411"/>
        <path fill="#738091" d="M11.083 9.776c.239-.602 1.534-2.99 2.043-3.638.469-.598 1.08-1.314 1.37-2.012-.45.586-.959.84-1.45 1.308-.337.32-.687.605-.967.967-.247.318-1.062 1.761-1.198 2.147-.119.338-.318.822-.321 1.166l-.077 1.172c.097-.053.199-.097.301-.137.055-.33.175-.662.299-.973"/>
        <path fill="#FFD540" d="M3.122 10.33c.15.315.457 1.017 1.171 1.031 3.838.076 7.81-.158 8.53-.584l-.1-1.103c-2.595.053-6.145-.951-8.666-.836l-.935 1.492z"/>
        <path fill="#DFA901" d="M11.087 11.266c.851-.168 1.462-.346 1.711-.494l-.1-1.103c-.663.014-1.417 0-2.215-.025.209.54.375 1.087.604 1.622M3.987 10.64c.165-.402.382-.78.552-1.18-.33.002-.646.009-.94.022l-.473 1.689c.07.148.228.296.449.413.155-.307.283-.63.412-.944"/>
    </g>
</svg>
